<?xml version="1.0" encoding="UTF-8"?>
<svg version="1.1" xmlns="http://www.w3.org/2000/svg" width="1538" height="657" viewBox="263 692 1538 657">
<path d="M0 0 C3.14364834 0.71160767 5.15995402 1.61996552 7.75 3.5625 C8.36359375 4.01753906 8.9771875 4.47257813 9.609375 4.94140625 C10.06828125 5.29074219 10.5271875 5.64007812 11 6 C8.15571261 11.5239055 4.91145775 16.72844639 1.4375 21.875 C-2.36079588 27.50796328 -6.06575237 33.18931557 -9.6875 38.9375 C-10.1913623 39.73679932 -10.69522461 40.53609863 -11.21435547 41.35961914 C-13.90087106 45.63217518 -16.56866324 49.91569471 -19.21875 54.2109375 C-29.72554708 71.2008768 -40.71860199 87.85742503 -51.72593689 104.52534485 C-61.4798976 119.29539203 -71.03024673 134.1714529 -80.3828125 149.19921875 C-83.54228579 154.27415388 -86.73395463 159.32781728 -89.9375 164.375 C-95.45963003 173.08060913 -100.85349833 181.86442334 -106.21850586 190.66748047 C-110.64420394 197.89992445 -115.24859771 204.97888455 -120 212 C-103.98150166 204.63099252 -90.95838715 193.84997258 -77.859375 182.2109375 C-69.80655293 175.12912887 -61.24445452 169.41807531 -52 164 C-51.35256836 163.61312012 -50.70513672 163.22624023 -50.03808594 162.82763672 C-45.23643868 160 -45.23643868 160 -43 160 C-39 166.75 -39 166.75 -39 169 C-40.90625 170.48046875 -40.90625 170.48046875 -43.5 172.1875 C-48.27103259 175.43615182 -53.02047522 178.78703941 -57 183 C-57 183.66 -57 184.32 -57 185 C-56.21753906 185.25394531 -55.43507813 185.50789062 -54.62890625 185.76953125 C-53.61699219 186.11371094 -52.60507812 186.45789063 -51.5625 186.8125 C-50.55316406 187.14894531 -49.54382813 187.48539063 -48.50390625 187.83203125 C-47.67761719 188.21746094 -46.85132813 188.60289062 -46 189 C-45.67 189.99 -45.34 190.98 -45 192 C-46.78935468 193.78935468 -49.19455951 193.03507594 -51.57397461 193.03588867 C-59.96813498 193.13296703 -64.95448471 194.28295591 -71.51953125 199.89453125 C-73.95594486 201.96260517 -76.31507338 203.37321686 -79.125 204.875 C-85.66591661 208.68967086 -90.00525453 214.3692024 -94.765625 220.140625 C-103.06318845 229.98913489 -112.98506993 235.99509345 -124.15649414 242.16870117 C-133.93673799 247.71240465 -138.49827031 254.37863425 -144 264 C-145.14567794 265.97220156 -146.29286203 267.94352879 -147.44140625 269.9140625 C-148.32143311 271.42661621 -148.32143311 271.42661621 -149.21923828 272.96972656 C-152.06334688 277.80946826 -155.00109681 282.59089371 -157.9375 287.375 C-162.04521749 294.07167686 -166.0552754 300.80848298 -169.94848633 307.63208008 C-176.01691164 318.23923153 -182.47991601 328.51939177 -189.25 338.6875 C-189.66211731 339.3090799 -190.07423462 339.93065979 -190.49884033 340.57107544 C-196.3224501 349.33411495 -202.49043975 357.7327673 -209 366 C-209.76280273 366.97541748 -210.52560547 367.95083496 -211.31152344 368.95581055 C-216.04716832 374.97705936 -221.22357039 380.38239466 -226.74731445 385.67382812 C-230.06405478 388.87149517 -230.06405478 388.87149517 -232 393 C-210.40990342 397.12507238 -187.46277998 391.35284107 -166.1875 387.625 C-165.3707782 387.48424042 -164.5540564 387.34348083 -163.71258545 387.19845581 C-146.89500063 384.28217145 -130.86231249 380.18093879 -115.0625 373.625 C-113.94810547 373.1815625 -112.83371094 372.738125 -111.68554688 372.28125 C-101.68636326 368.18562184 -92.73548557 363.08238374 -84.875 355.625 C-83.96492188 354.77164062 -83.05484375 353.91828125 -82.1171875 353.0390625 C-80.41052262 351.41133472 -78.77943334 349.75919024 -77.18579102 348.01928711 C-70.95744966 341.37410276 -63.91990937 336.57594975 -56.30834961 331.6784668 C-54.19344907 330.3163316 -52.09132319 328.93605536 -49.99023438 327.55273438 C-30.37913446 314.72739635 -11.45914302 309.09239822 11.42138672 305.16870117 C26.95993665 302.47749181 39.88313536 298.58986206 52 288 C62.914824 279.21061025 73.29682911 274.83599797 87.25 274.75 C88.07113281 274.729375 88.89226563 274.70875 89.73828125 274.6875 C95.50774877 274.65092651 99.72633492 275.63758895 105 278 C105.33 278.33 105.66 278.66 106 279 C105.89783449 284.10827545 104.6901448 287.31386139 101.17578125 291.0546875 C86.57330625 304.11040123 68.68488557 313.80684759 49.5390625 318.0234375 C36.38755245 320.95428113 25.60165093 326.59258378 13.96948242 333.3137207 C10.8520719 335.0840039 7.69646003 336.76563778 4.52734375 338.44140625 C-1.86242618 341.86571619 -7.97668315 345.6274861 -14.0625 349.5625 C-15.14176758 350.25794922 -16.22103516 350.95339844 -17.33300781 351.66992188 C-32.15044447 361.27438244 -46.43012153 371.45439875 -60.40917969 382.23901367 C-65.66365242 386.2773191 -70.99457322 390.12499774 -76.5 393.8125 C-83.79981574 398.71459932 -90.37596162 404.23207102 -97 410 C-100.62798388 413.04858944 -104.30436209 416.0341226 -108 419 C-108.65629395 419.53028809 -109.31258789 420.06057617 -109.98876953 420.60693359 C-119.91159976 428.59741146 -129.82581581 435.87518599 -141 442 C-141.86286621 442.48243164 -142.72573242 442.96486328 -143.61474609 443.46191406 C-158.844688 451.93611085 -173.21253641 458.7037171 -190.77734375 460.25 C-193.19386147 460.77907872 -193.19386147 460.77907872 -194.08984375 463.1015625 C-194.39019531 464.05804687 -194.69054687 465.01453125 -195 466 C-197.23638834 470.65126776 -199.56529644 475.25388848 -201.90771484 479.85253906 C-202.61239782 481.23796407 -203.31351488 482.6252114 -204.01025391 484.01464844 C-209.06858131 494.08079572 -214.97630739 502.84967045 -222.125 511.6015625 C-223.0840625 512.78878906 -223.0840625 512.78878906 -224.0625 514 C-224.63097656 514.680625 -225.19945312 515.36125 -225.78515625 516.0625 C-227.35415113 518.18367564 -227.35415113 518.18367564 -227 522 C-220.50149789 521.48446121 -214.33773468 520.53332291 -208 519 C-208.05800781 518.11957031 -208.11601562 517.23914062 -208.17578125 516.33203125 C-208.54119385 506.9252669 -208.54119385 506.9252669 -206.0625 502.6875 C-201.26322179 500.04299976 -196.83277696 500.41891755 -191.5625 501.5 C-182.29502727 503.30828736 -174.47582162 501.62660973 -166.6171875 496.421875 C-162.83015772 493.57197462 -159.52454719 490.54221779 -156.3125 487.0625 C-153.9016445 484.57333365 -153.29344623 484.05643197 -149.75 483.375 C-146.67488109 484.07389066 -145.86798651 484.52545465 -144 487 C-142.15504914 496.82436335 -145.41472477 505.68959234 -150.8671875 513.765625 C-152.81158853 516.29258977 -154.83367154 518.66154079 -157 521 C-157.52078125 521.56332031 -158.0415625 522.12664063 -158.578125 522.70703125 C-167.04049738 530.80611997 -179.241166 534.55370632 -190 538.5 C-202.82854122 543.20756688 -214.44964868 548.12116942 -225 557 C-245.37830805 573.92785647 -279.69954627 596.72439763 -307.015625 596.2109375 C-311.76290033 595.70630587 -314.49481271 593.51666882 -317.75 590.1875 C-322.08078438 584.05222213 -322.87231973 578.33498959 -322 571 C-316.36792851 544.5264051 -302.55367551 517.29045775 -286 496 C-285.07026613 494.78388962 -284.14057985 493.56774285 -283.2109375 492.3515625 C-278.506276 486.25166977 -273.74025253 480.40714081 -268.265625 474.96484375 C-266.76018914 473.0377136 -266.76018914 473.0377136 -267.0859375 470.4921875 C-268.12107004 467.66990304 -269.258436 466.30838352 -271.375 464.1875 C-282.4126193 452.31610371 -290.71105089 437.79180298 -297.82226562 423.32006836 C-300.98321257 416.92694819 -304.44337946 410.72733371 -307.9921875 404.54296875 C-309.52882729 401.86191824 -310.93246226 399.14018673 -312.3125 396.375 C-315.7562241 390.10164246 -320.94500737 384.91737154 -325.63623047 379.56396484 C-332.94724804 371.17972235 -338.20020877 361.95372056 -338.06591797 350.56396484 C-338.05128006 348.93109024 -338.05128006 348.93109024 -338.03634644 347.26522827 C-338.02177399 346.09231232 -338.00720154 344.91939636 -337.9921875 343.7109375 C-337.9746617 341.21745205 -337.95775434 338.7239622 -337.94140625 336.23046875 C-337.91052827 332.30700432 -337.87510382 328.38376142 -337.82861328 324.46044922 C-337.78604405 320.66891802 -337.76276243 316.87764357 -337.7421875 313.0859375 C-337.72356659 311.92516693 -337.70494568 310.76439636 -337.6857605 309.56845093 C-337.66380885 302.53041849 -338.52633593 296.60261964 -341 290 C-342.32 290 -343.64 290 -345 290 C-346.67118408 291.62185744 -346.67118408 291.62185744 -348 293.875 C-348.474375 294.59429688 -348.94875 295.31359375 -349.4375 296.0546875 C-354.4358778 305.47662965 -356.06179799 314.45856216 -357.24609375 324.98632812 C-358.37134129 333.32431103 -360.78672116 337.50899753 -367.1875 342.8125 C-370.10644166 346.33536063 -370.89664575 350.62001797 -372 355 C-374.69051564 352.30948436 -374.95916337 350.3986212 -375.34375 346.64453125 C-374.91832361 342.13404462 -373.6329343 340.87361683 -370.5 337.6875 C-367.28586202 334.00915371 -365.35030194 331.7171753 -365.3125 326.75 C-365.53675103 323.8596534 -366.17082274 321.43909928 -367.01953125 318.65234375 C-370.35162134 306.23997629 -367.49765816 294.51961176 -361.75 283.375 C-359.17312755 278.97585326 -356.02078276 275.08048401 -352.76953125 271.1640625 C-349.63025724 267.47189936 -349.63025724 267.47189936 -349.1328125 262.79296875 C-350.12080027 258.47163487 -351.76034021 255.16775641 -353.875 251.3125 C-358.18874108 243.0052934 -360.48645385 235.33356539 -361.625 226.01171875 C-363.38501952 211.71636373 -366.4688362 201.91770091 -375.8515625 190.68359375 C-378.30617754 187.61755642 -380.52572116 184.46396731 -382.6875 181.1875 C-383.39261719 180.12917969 -384.09773438 179.07085938 -384.82421875 177.98046875 C-391.15042077 167.17839911 -393.93200007 154.5746403 -397.05224609 142.5612793 C-399.74201582 132.26394814 -402.69873123 124.13847411 -410.1875 116.3125 C-413.78555011 112.39341175 -417.24323288 108.40576758 -420.5625 104.25 C-421.00424561 103.71930908 -421.44599121 103.18861816 -421.90112305 102.6418457 C-424.75851426 99.00263498 -425.488181 96.59302684 -425 92 C-421.01618925 94.16264012 -418.11016455 96.71211176 -415 100 C-416.16353852 93.68951462 -417.62452528 87.5809273 -419.51171875 81.4453125 C-420.02344855 78.88256967 -419.84641294 77.44266823 -419 75 C-417.35 75.33 -415.7 75.66 -414 76 C-413.67 74.35 -413.34 72.7 -413 71 C-409.48279246 72.40688302 -408.27708234 73.71462335 -406.6875 77.125 C-406.26210938 78.0325 -405.83671875 78.94 -405.3984375 79.875 C-404.93695313 80.90625 -404.47546875 81.9375 -404 83 C-403.49726563 84.11375 -402.99453125 85.2275 -402.4765625 86.375 C-399.77869068 92.42761677 -397.18435947 98.51446395 -394.71484375 104.6640625 C-387.79604537 121.81149665 -379.29762716 137.51109779 -369.83984375 153.36157227 C-365.22894122 161.16875098 -361.10201431 169.22385161 -356.96484375 177.2890625 C-355.10483075 180.90713673 -353.19140285 184.4809091 -351.19140625 188.0234375 C-345.96236939 197.364889 -342.38275465 206.1708147 -340.03515625 216.6328125 C-338.64231634 224.37613753 -338.64231634 224.37613753 -335 231 C-335.03480469 230.35933594 -335.06960938 229.71867188 -335.10546875 229.05859375 C-335.32898334 221.91677026 -334.50554501 216.9118496 -329.6875 211.3125 C-323.06611027 205.61502512 -317.46402063 202.48904901 -308.6953125 202.59375 C-304.73750609 203.19028894 -301.71219393 204.93752139 -298.32421875 207.00390625 C-295.35935809 208.27456082 -294.03314054 208.02213984 -291 207 C-288.65001856 205.65231569 -288.65001856 205.65231569 -286.4375 204 C-279.4615531 198.97054782 -272.41241413 199.49015672 -264 200 C-256.7597347 201.36260176 -251.6157594 205.62482658 -247.18359375 211.34375 C-239.45698969 222.6916782 -233.52405146 237.70490041 -235.4765625 251.6328125 C-237.40128409 260.33715044 -243.48249243 268.21285292 -250.78271484 273.22363281 C-254.74881347 275.68716108 -258.84096027 277.88202529 -263 280 C-263.40792728 283.80915876 -263.43280535 285.44830148 -261.0234375 288.51953125 C-260.14945313 289.27621094 -259.27546875 290.03289062 -258.375 290.8125 C-257.51648438 291.58207031 -256.65796875 292.35164063 -255.7734375 293.14453125 C-252.57680756 295.2831217 -250.85428209 296.05839821 -247 296 C-244.44048341 294.57177787 -242.39758711 293.22678379 -240.125 291.4375 C-239.50568604 290.97512939 -238.88637207 290.51275879 -238.24829102 290.03637695 C-235.71014719 288.13335161 -233.22308006 286.1828397 -230.76953125 284.171875 C-226.94813514 281.07564787 -223.47079703 279.33291279 -218.8125 277.6875 C-208.13901731 273.82083324 -199.94389246 267.04714979 -191.71875 259.3828125 C-186.70617061 254.98960355 -181.2294869 251.2008389 -175.82226562 247.3125 C-157.09661992 233.82521821 -143.9942041 221.74804189 -133.13989258 201.18676758 C-126.11396575 188.14079263 -117.47418438 176.13007047 -109 164 C-107.69639478 162.12385062 -106.39299244 160.24756026 -105.08984375 158.37109375 C-100.86872119 152.30938516 -96.61538382 146.27084931 -92.33447266 140.2512207 C-85.14532223 130.12677139 -78.13253211 119.8976241 -71.25 109.5625 C-70.47429657 108.399534 -70.47429657 108.399534 -69.68292236 107.21307373 C-61.05996433 94.27086109 -52.80961721 81.15074242 -44.74121094 67.85546875 C-35.68871406 53.00998312 -26.07835743 38.52919506 -16.4375 24.0625 C-15.90817871 23.26797424 -15.37885742 22.47344849 -14.83349609 21.65484619 C-13.30603242 19.36382862 -11.77654045 17.07418194 -10.24609375 14.78515625 C-9.79137192 14.10368027 -9.33665009 13.42220428 -8.8681488 12.72007751 C-5.98898291 8.42208701 -3.02503435 4.1966954 0 0 Z M-304 244 C-304.15855469 244.85980469 -304.31710937 245.71960938 -304.48046875 246.60546875 C-305.74364742 253.00510878 -307.16054668 258.72694933 -309.6875 264.75 C-312.25576521 271.15509779 -313.52880279 276.70513076 -311.16015625 283.359375 C-309.37412467 287.41017258 -309.37412467 287.41017258 -306 290 C-299.76377797 285.60629812 -296.95310956 280.97141947 -295.51171875 273.453125 C-294.76859101 263.13676346 -299.31584857 253.43433914 -303 244 C-303.33 244 -303.66 244 -304 244 Z M-173 277 C-174.09501831 278.11072876 -174.09501831 278.11072876 -175.2121582 279.24389648 C-177.97080604 282.03925947 -180.73649093 284.82757514 -183.50415039 287.61401367 C-184.69189696 288.81170223 -185.87782948 290.01119304 -187.06176758 291.21264648 C-194.38416655 298.64049296 -201.796018 305.5419827 -210 312 C-212.01239612 313.65572798 -213.97725173 315.34396656 -215.9375 317.0625 C-216.81277344 317.81660156 -217.68804687 318.57070312 -218.58984375 319.34765625 C-224.34775783 325.68416138 -226.25566441 333.57628645 -228.4375 341.6875 C-228.735354 342.77587158 -229.03320801 343.86424316 -229.34008789 344.9855957 C-231.29412555 352.19723725 -233.16678407 359.42866855 -234.9375 366.6875 C-235.14882568 367.54110107 -235.36015137 368.39470215 -235.57788086 369.27416992 C-236.60495696 373.60988895 -237.2394704 377.50811587 -237 382 C-232.80220726 378.28540642 -230.05382199 373.7440807 -227.0625 369.0625 C-226.49402344 368.18005615 -225.92554688 367.2976123 -225.33984375 366.38842773 C-219.65088492 357.52370789 -214.11276453 348.56688223 -208.59863281 339.59277344 C-207.06184522 337.10030485 -205.51384803 334.61526094 -203.9609375 332.1328125 C-195.04611752 317.86086972 -186.46267619 303.39680859 -177.90478516 288.90913391 C-176.3701182 286.31151206 -174.82880213 283.73575279 -173.18798828 281.203125 C-172.79595215 280.47609375 -172.40391602 279.7490625 -172 279 C-172.495 278.01 -172.495 278.01 -173 277 Z " fill="#030303" transform="translate(719,722)"/>
<path d="M0 0 C0.88543488 -0.00696899 1.77086975 -0.01393799 2.68313599 -0.02111816 C5.47240175 -0.03814848 8.26146593 -0.04482126 11.05078125 -0.046875 C12.49171646 -0.04838562 12.49171646 -0.04838562 13.96176147 -0.04992676 C28.61032262 -0.03957797 42.94390921 0.35667164 57.36328125 3.203125 C58.08596191 3.34234375 58.80864258 3.4815625 59.55322266 3.625 C71.68374312 6.08585224 85.74504323 10.86714477 93.36328125 21.203125 C100.68607311 32.4432168 102.77443009 44.29039684 100.23828125 57.515625 C97.56662277 68.27446589 92.63402462 76.16460852 83.2578125 82.203125 C75.57097649 86.79391958 67.54479145 90.58070041 59.36328125 94.203125 C60.09853027 94.47463379 60.8337793 94.74614258 61.59130859 95.02587891 C64.97754899 96.28301733 68.35785114 97.55544959 71.73828125 98.828125 C72.89457031 99.25480469 74.05085938 99.68148437 75.2421875 100.12109375 C89.36691291 105.46774122 100.92404068 111.7566219 107.59765625 125.80078125 C112.74240804 138.15936978 112.95918535 151.59030548 108.36328125 164.203125 C101.06251035 179.64536163 87.40621073 187.51055532 71.82421875 193.11328125 C38.82491397 203.50471018 4.79761133 200.203125 -29.63671875 200.203125 C-29.63671875 134.533125 -29.63671875 68.863125 -29.63671875 1.203125 C-7.57952003 0.0422198 -7.57952003 0.0422198 0 0 Z M-0.63671875 18.203125 C-1.34629994 21.82445078 -1.14031685 25.40408821 -1.01171875 29.078125 C-0.99173828 30.21677002 -0.97175781 31.35541504 -0.95117188 32.52856445 C-0.90054547 35.17670175 -0.83961395 37.822811 -0.76464844 40.47021484 C-0.61035429 45.98082604 -0.50407859 51.49225483 -0.39453125 57.00390625 C-0.16998187 68.07102965 0.08891184 79.13713521 0.36328125 90.203125 C17.75106035 94.00202411 41.08599955 91.81606758 56.30078125 82.453125 C65.06037823 76.01979462 69.24041672 66.6972855 71.36328125 56.203125 C72.34012942 44.67311384 70.52617949 34.02847987 62.98828125 24.9453125 C56.25959515 17.73138461 48.44326485 12.70199832 38.35058594 12.07885742 C17.5685298 10.83917173 17.5685298 10.83917173 -0.63671875 18.203125 Z M0.36328125 101.203125 C-0.55635366 108.2223047 -0.78292947 115.08159236 -0.76953125 122.15625 C-0.77048798 123.29229675 -0.7714447 124.42834351 -0.77243042 125.59881592 C-0.77310844 127.99914607 -0.77128058 130.3994781 -0.76708984 132.79980469 C-0.76179621 136.40043474 -0.76701663 140.0009366 -0.7734375 143.6015625 C-0.77702843 157.49847017 -0.45861299 171.33014932 0.36328125 185.203125 C6.05481416 187.08250162 11.21277391 188.58271844 17.26171875 188.6015625 C18.48375 188.60542969 19.70578125 188.60929687 20.96484375 188.61328125 C22.21007813 188.60167969 23.4553125 188.59007812 24.73828125 188.578125 C26.59453125 188.59552734 26.59453125 188.59552734 28.48828125 188.61328125 C43.91986407 188.56454994 58.96968298 184.64690696 70.48828125 173.828125 C74.26487957 169.72160081 76.66073674 165.50330819 78.36328125 160.203125 C78.64945313 159.33494141 78.64945313 159.33494141 78.94140625 158.44921875 C81.38299141 145.4500385 79.25579151 132.68490139 72.140625 121.5859375 C62.34674585 108.45568194 47.36903478 104.15289142 31.8515625 101.6328125 C25.71655736 100.89989209 19.53100921 101.09829107 13.36328125 101.140625 C11.48576172 101.14739258 11.48576172 101.14739258 9.5703125 101.15429688 C6.50125184 101.16601085 3.43229218 101.18241427 0.36328125 101.203125 Z " fill="#977A78" transform="translate(1657.63671875,763.796875)"/>
<path d="M0 0 C9.57 0 19.14 0 29 0 C29 32.01 29 64.02 29 97 C35.37322003 92.35499491 35.37322003 92.35499491 40.859375 87.15234375 C41.49391602 86.47131592 42.12845703 85.79028809 42.78222656 85.08862305 C43.4315918 84.37875244 44.08095703 83.66888184 44.75 82.9375 C45.78979004 81.81758667 45.78979004 81.81758667 46.85058594 80.67504883 C48.90761358 78.45656016 50.95557225 76.23009934 53 74 C53.56332031 73.38576172 54.12664063 72.77152344 54.70703125 72.13867188 C55.22652344 71.57212891 55.74601563 71.00558594 56.28125 70.421875 C57.27070539 69.34363258 58.26028421 68.26550341 59.25 67.1875 C59.7255835 66.66833008 60.20116699 66.14916016 60.69116211 65.61425781 C64.62830966 61.34167632 68.72352761 57.24414093 72.85693359 53.16235352 C75.47458457 50.56581957 77.99198402 47.9380339 80.375 45.125 C84.2361601 40.57910215 88.50433275 36.44314144 92.76318359 32.27392578 C97.82286174 27.28821538 102.45153513 21.98994074 107.05761719 16.5859375 C121.52551269 -0.1261957 121.52551269 -0.1261957 129.01953125 -1.23046875 C133.13630795 -1.38241048 136.98370221 -0.87936866 141 0 C136.51637042 5.38599529 131.74899399 10.34256268 126.75 15.25 C125.32579927 16.64867742 123.90382367 18.04962519 122.484375 19.453125 C121.86272461 20.06317383 121.24107422 20.67322266 120.60058594 21.30175781 C118.80358687 23.11368729 118.80358687 23.11368729 117 26 C116.34 26 115.68 26 115 26 C114.79455566 26.53069092 114.58911133 27.06138184 114.37744141 27.6081543 C112.42634452 30.99611889 109.72143301 33.54341005 106.9609375 36.26953125 C106.36125153 36.868759 105.76156555 37.46798676 105.14370728 38.08537292 C103.87339709 39.35266537 102.6006607 40.61752983 101.32568359 41.88012695 C99.3976141 43.79009818 97.47750968 45.70779036 95.55859375 47.62695312 C85.40845655 57.74689832 85.40845655 57.74689832 81.0078125 61.484375 C74.46386933 67.0522516 68.55048606 73.34652458 62.5 79.4375 C61.18773415 80.75479059 59.87523605 82.07184986 58.5625 83.38867188 C55.37231494 86.5897861 52.18529349 89.79401865 49 93 C51.40525107 96.05256718 53.69591941 98.76642366 56.6875 101.25 C59.76805335 103.87904368 62.65833958 106.61416869 65.5 109.5 C68.14730434 112.18326093 70.81096943 114.75256901 73.6875 117.1875 C77.6549785 120.5973008 81.35943439 124.24613598 85.0625 127.9375 C85.6402417 128.51072998 86.2179834 129.08395996 86.81323242 129.67456055 C89.6284564 132.49936419 92.3339785 135.36399083 94.90820312 138.41040039 C100.28122642 144.57400405 106.14210299 150.26541579 111.93359375 156.03125 C113.17934244 157.27513013 114.42486795 158.51923381 115.67018127 159.7635498 C118.92461236 163.01419015 122.18203681 166.26181428 125.44012451 169.50878906 C128.77376868 172.83214452 132.10453077 176.1583858 135.43554688 179.484375 C141.95423646 185.99238809 148.47609653 192.49721383 155 199 C151.53486281 200.85133975 148.89148805 201.36158962 144.94921875 201.6328125 C143.77552734 201.71660156 142.60183594 201.80039062 141.39257812 201.88671875 C140.16990234 201.96535156 138.94722656 202.04398438 137.6875 202.125 C135.87088867 202.25455078 135.87088867 202.25455078 134.01757812 202.38671875 C131.68661417 202.54747489 129.35450634 202.69261623 127.02148438 202.82006836 C125.27448902 202.92410323 123.5276387 203.05894075 121.79101562 203.27563477 C119.28971746 203.51965548 117.5284103 203.40001715 115.49584961 201.86132812 C113.90399696 200.2169796 112.51654235 198.50425536 111.125 196.6875 C110.6081665 196.0488501 110.09133301 195.4102002 109.55883789 194.75219727 C108.51133276 193.45452231 107.47254842 192.14975643 106.44287109 190.83789062 C104.48057759 188.33837362 102.45819878 185.88991001 100.4375 183.4375 C99.72464844 182.55964844 99.01179688 181.68179688 98.27734375 180.77734375 C95.25514777 177.09161247 92.16852793 173.46255178 89.08129883 169.83129883 C86.22140505 166.46129684 83.40737018 163.05964744 80.625 159.625 C75.98380567 153.92485224 71.16726107 148.38579373 66.33984375 142.84375 C63.11945263 139.14512003 59.93304005 135.41826432 56.75 131.6875 C52.58158964 126.80875018 48.34934288 121.99794507 44.02734375 117.25390625 C41.51389413 114.45957016 39.09777828 111.58796919 36.703125 108.69140625 C34.65348904 106.52101705 34.65348904 106.52101705 30 104 C29.67 135.68 29.34 167.36 29 200 C19.1 200 9.2 200 -1 200 C-1.02311584 174.07089457 -1.0409776 148.1417916 -1.05181217 122.21267796 C-1.05697581 110.17425245 -1.06401979 98.13583344 -1.07543945 86.09741211 C-1.08538423 75.60882356 -1.09185293 65.12023971 -1.09408849 54.63164657 C-1.09539595 49.07433136 -1.09848402 43.51702962 -1.10573006 37.9597187 C-1.11248702 32.7354724 -1.11461763 27.5112452 -1.11310768 22.28699493 C-1.11338416 20.36363306 -1.11539119 18.44027058 -1.11920547 16.51691246 C-1.12413767 13.90293905 -1.12300006 11.28903899 -1.12025452 8.67506409 C-1.12316736 7.90367822 -1.1260802 7.13229235 -1.12908131 6.33753115 C-1.11412121 1.11412121 -1.11412121 1.11412121 0 0 Z " fill="#977A78" transform="translate(940,764)"/>
<path d="M0 0 C1.2065625 0.0309375 1.2065625 0.0309375 2.4375 0.0625 C3.0248291 1.52381348 3.0248291 1.52381348 3.62402344 3.01464844 C5.14183845 6.78855808 6.66392003 10.56073676 8.18701172 14.33251953 C8.83360379 15.93527264 9.47918257 17.53843508 10.12353516 19.14208984 C15.835052 33.35320994 21.84425002 47.42973268 27.9029541 61.49584961 C30.32985909 67.13655519 32.74261276 72.78329534 35.15625 78.4296875 C44.72104186 100.78721515 54.3039361 123.13650545 64 145.4375 C64.60914246 146.83915909 64.60914246 146.83915909 65.23059082 148.26913452 C69.45435452 157.98360018 73.70391425 167.68576664 78.01171875 177.36328125 C78.37024429 178.17003296 78.72876984 178.97678467 79.09815979 179.8079834 C80.76586091 183.56007639 82.43869739 187.30965909 84.12329102 191.05419922 C84.70218865 192.35244857 85.28089575 193.65078292 85.859375 194.94921875 C86.61105957 196.62310669 86.61105957 196.62310669 87.37792969 198.33081055 C88.4375 201.0625 88.4375 201.0625 88.4375 204.0625 C78.2075 204.0625 67.9775 204.0625 57.4375 204.0625 C54.23367423 197.0140833 51.13208486 190.01471472 48.265625 182.8359375 C47.89773865 181.92163971 47.52985229 181.00734192 47.15081787 180.06533813 C45.59734074 176.20437992 44.04963257 172.34111691 42.50146484 168.47802734 C41.36240307 165.63816822 40.2203585 162.79952204 39.078125 159.9609375 C38.72711731 159.08190765 38.37610962 158.20287781 38.01446533 157.29721069 C37.52825714 156.08927353 37.52825714 156.08927353 37.03222656 154.85693359 C36.74752502 154.14620697 36.46282349 153.43548035 36.16949463 152.70321655 C35.55319818 151.05897967 35.55319818 151.05897967 34.4375 150.0625 C31.69944796 149.93733363 28.98538281 149.87642327 26.24584961 149.85717773 C25.38738937 149.84727814 24.52892914 149.83737854 23.64445496 149.82717896 C20.79294641 149.79546691 17.94142118 149.77076836 15.08984375 149.74609375 C13.11828669 149.72553259 11.14673412 149.70453635 9.17518616 149.68312073 C3.97528715 149.62781347 -1.2246522 149.5784425 -6.42462158 149.53027344 C-11.72647714 149.48012143 -17.0282738 149.42440256 -22.33007812 149.36914062 C-32.74083515 149.26145327 -43.15164323 149.16003195 -53.5625 149.0625 C-53.75506063 149.65259354 -53.94762127 150.24268707 -54.14601707 150.85066223 C-55.52034846 155.024729 -56.92078387 159.14830106 -58.63134766 163.19921875 C-59.00828766 164.09624512 -59.38522766 164.99327148 -59.77359009 165.91748047 C-60.17057098 166.85221191 -60.56755188 167.78694336 -60.9765625 168.75 C-61.39167084 169.73371582 -61.80677917 170.71743164 -62.23446655 171.73095703 C-63.1051943 173.79219643 -63.97758333 175.85273478 -64.8515625 177.91259766 C-66.19457585 181.07918359 -67.53123988 184.24839633 -68.8671875 187.41796875 C-69.71577319 189.42463679 -70.56471851 191.4311528 -71.4140625 193.4375 C-71.81509186 194.38842529 -72.21612122 195.33935059 -72.62930298 196.3190918 C-72.99993866 197.19090088 -73.37057434 198.06270996 -73.75244141 198.9609375 C-74.07870514 199.73099121 -74.40496887 200.50104492 -74.74111938 201.29443359 C-75.5625 203.0625 -75.5625 203.0625 -76.5625 204.0625 C-79.2611905 204.13575436 -81.92752556 204.15472351 -84.625 204.125 C-86.04093153 204.11351098 -87.45686603 204.10238482 -88.87280273 204.09155273 C-90.69920288 204.07717163 -90.69920288 204.07717163 -92.5625 204.0625 C-87.07733549 191.18969308 -81.51961868 178.35214807 -75.84967041 165.55966187 C-74.64061771 162.83172124 -73.43317947 160.10307046 -72.22607422 157.37426758 C-69.67285364 151.60310067 -67.11778458 145.83275326 -64.5625 140.0625 C-61.26933645 132.62566184 -57.97725521 125.18834657 -54.6875 117.75 C-54.28786041 116.84649811 -53.88822083 115.94299622 -53.47647095 115.01211548 C-48.04213628 102.72224779 -42.66377444 90.41015283 -37.34228516 78.07104492 C-32.8205883 67.60754907 -28.19047995 57.19375853 -23.54602051 46.78430176 C-18.09159756 34.55750694 -12.73022964 22.29323249 -7.45898438 9.98632812 C-6.95818359 8.82166016 -6.45738281 7.65699219 -5.94140625 6.45703125 C-5.5038501 5.43456299 -5.06629395 4.41209473 -4.61547852 3.35864258 C-3.11003837 0.07585459 -3.11003837 0.07585459 0 0 Z M-9.5625 41.0625 C-9.91078857 42.08666016 -10.25907715 43.11082031 -10.61791992 44.16601562 C-14.01158414 54.02818927 -17.77960606 63.66203421 -21.88427734 73.24819946 C-23.62778342 77.32098112 -25.353283 81.40140671 -27.08203125 85.48046875 C-27.44253571 86.32977463 -27.80304016 87.17908051 -28.17446899 88.05412292 C-32.13286373 97.38717632 -36.03035195 106.74537753 -39.91488647 116.109375 C-40.67922516 117.95134892 -41.4443808 119.79298405 -42.21035767 121.63427734 C-43.27744582 124.19945634 -44.34221724 126.76558365 -45.40625 129.33203125 C-45.88785835 130.48859978 -45.88785835 130.48859978 -46.37919617 131.66853333 C-47.8953963 134.76848961 -47.8953963 134.76848961 -48.5625 138.0625 C-31.41040634 138.14448219 -14.27331842 137.90608898 2.875 137.5625 C5.37174088 137.51412047 7.86848567 137.46594235 10.36523438 137.41796875 C16.38936978 137.30179065 22.4134529 137.18316621 28.4375 137.0625 C27.81764097 131.01425576 25.49496037 125.73351312 23.23828125 120.1484375 C22.81099731 119.07661224 22.38371338 118.00478699 21.94348145 116.90048218 C20.55111485 113.41061125 19.15067798 109.92404242 17.75 106.4375 C15.83085688 101.63900859 13.91535245 96.83906802 12 92.0390625 C11.52383743 90.84740479 11.04767487 89.65574707 10.55708313 88.42797852 C7.65896168 81.16450813 4.80296932 73.88663871 2 66.5859375 C1.67259323 65.73458221 1.34518646 64.88322693 1.00785828 64.006073 C-0.2088829 60.83912607 -1.42446786 57.67184136 -2.62631226 54.49920654 C-3.42615621 52.38786285 -4.23384624 50.27967613 -5.04296875 48.171875 C-5.70655396 46.42342285 -5.70655396 46.42342285 -6.38354492 44.63964844 C-7.2950651 41.93483501 -7.2950651 41.93483501 -9.5625 41.0625 Z " fill="#967977" transform="translate(1506.5625,759.9375)"/>
<path d="M0 0 C-0.11391632 2.60508636 -0.24065548 5.20845546 -0.375 7.8125 C-0.4059375 8.55048828 -0.436875 9.28847656 -0.46875 10.04882812 C-0.67346148 13.81893115 -0.86433827 15.79650741 -3 19 C-3.62640381 18.75878418 -4.25280762 18.51756836 -4.89819336 18.26904297 C-38.30150154 4.06397942 -38.30150154 4.06397942 -73.13671875 5.0625 C-79.07049738 8.048049 -81.60521479 11.98955868 -84 18 C-86.72056741 26.48600829 -85.71539132 36.36953863 -82.32421875 44.47265625 C-76.29264483 55.98424423 -66.14018846 63.207423 -55.4375 70.0625 C-54.44387451 70.70590332 -53.45024902 71.34930664 -52.42651367 72.01220703 C-45.30031304 76.59945715 -38.07587756 81.00932277 -30.8125 85.375 C-22.83409738 90.17271502 -15.21820342 95.09633118 -8 101 C-7.00355469 101.77988281 -6.00710938 102.55976562 -4.98046875 103.36328125 C4.36800774 111.63355862 11.29868569 124.32139379 12.125 136.90332031 C12.46838537 146.29061789 12.45301277 155.12725849 9 164 C8.74476563 164.68964844 8.48953125 165.37929688 8.2265625 166.08984375 C3.05100998 178.07908238 -8.18531051 186.5942594 -19.8125 191.75 C-30.48257518 195.81988051 -40.72910979 197.51878886 -52.125 197.375 C-53.29861084 197.36557373 -54.47222168 197.35614746 -55.68139648 197.34643555 C-74.53284693 197.02307642 -94.18926112 193.88648486 -111 185 C-111 181.04 -111 177.08 -111 173 C-109.49373047 173.58007812 -109.49373047 173.58007812 -107.95703125 174.171875 C-86.16466016 182.49976008 -60.66345136 190.965754 -37.59375 182.25390625 C-28.33613733 177.77846398 -22.52428831 170.98935626 -19.125 161.25 C-16.09311176 149.52185746 -17.7404552 138.41122594 -23.7421875 127.96875 C-34.21362066 112.63699126 -51.51245638 104.67365097 -67.26953125 95.8046875 C-103.35787355 75.49214249 -103.35787355 75.49214249 -109.4921875 55.0703125 C-112.96473322 40.91301072 -111.36356326 27.38030815 -104.1875 14.625 C-96.15802552 2.25039843 -83.38708098 -5.04603797 -69.125 -8.25 C-46.50990029 -11.82248402 -21.22096583 -8.29460914 0 0 Z " fill="#967978" transform="translate(881,770)"/>
<path d="M0 0 C9.9 0 19.8 0 30 0 C35.89247943 11.00507188 41.53978228 22.06751122 46.90771484 33.33642578 C51.68000743 43.35302866 56.51654482 53.33743465 61.375 63.3125 C61.98281311 64.5607103 61.98281311 64.5607103 62.60290527 65.83413696 C69.96369787 80.94233074 77.43541239 95.99286455 85 111 C85.66 111 86.32 111 87 111 C98.65523524 87.99009433 109.45518843 64.60322952 120.05560303 41.09381104 C120.99406237 39.01316425 121.93365609 36.93303315 122.87353516 34.85302734 C124.36734716 31.54634533 125.85844889 28.23845492 127.347229 24.92950439 C128.15999759 23.1236078 128.97425985 21.31838369 129.78857422 19.51318359 C132.6823987 13.06336448 135.42435718 6.58356433 138 0 C142.95 0 147.9 0 153 0 C151.43148386 4.70554843 149.67560825 9.0309759 147.54296875 13.4765625 C147.20387482 14.19088943 146.86478088 14.90521637 146.51541138 15.64118958 C145.78767954 17.17343116 145.05842665 18.70495108 144.32778931 20.23580933 C142.38628178 24.30375212 140.45544279 28.37675675 138.5234375 32.44921875 C138.13535416 33.26650955 137.74727081 34.08380035 137.34742737 34.92585754 C133.95583694 42.07514679 130.62695578 49.25210903 127.3125 56.4375 C121.25540227 69.54213453 114.98088159 82.53539316 108.68115234 95.52441406 C105.52662613 102.04602823 102.40733719 108.58447405 99.28662109 115.12231445 C98.65554443 116.44428833 98.65554443 116.44428833 98.01171875 117.79296875 C97.64522217 118.5614917 97.27872559 119.33001465 96.90112305 120.12182617 C96.2783471 121.41985254 95.64385128 122.71229744 95 124 C94.87802512 126.40973615 94.81440406 128.79254882 94.79467773 131.20361328 C94.78477814 131.9451767 94.77487854 132.68674011 94.76467896 133.45077515 C94.73303637 135.90725488 94.70829569 138.36375397 94.68359375 140.8203125 C94.6630266 142.521398 94.64203019 144.22247836 94.62062073 145.92355347 C94.56537536 150.40500736 94.51597697 154.88650756 94.46777344 159.36804199 C94.4175764 163.93941377 94.36188096 168.51071813 94.30664062 173.08203125 C94.19902888 182.05463211 94.0980986 191.02729009 94 200 C85.09 200 76.18 200 67 200 C67.01160156 197.87240234 67.02320313 195.74480469 67.03515625 193.55273438 C67.06792018 186.45994684 67.05610496 179.36771214 67.02334595 172.27494049 C67.00484567 167.98159695 67.00056568 163.6892952 67.03076172 159.39599609 C67.05944169 155.23916905 67.04818705 151.08406488 67.01119995 146.92732239 C67.00385145 145.35521262 67.01000916 143.78296959 67.03103638 142.21098328 C67.18206661 129.88892248 64.15563542 121.59911324 58 111 C57.00500047 109.07774127 56.01911539 107.15067217 55.05078125 105.21484375 C50.14525401 95.72741474 45.11421482 86.33474535 39.8125 77.0625 C31.85095501 63.1383126 24.40078658 48.9461284 16.92626953 34.75683594 C15.58957369 32.22155305 14.2479126 29.6889072 12.90625 27.15625 C0 2.76790406 0 2.76790406 0 0 Z " fill="#967977" transform="translate(1106,764)"/>
<path d="M0 0 C9.24 0 18.48 0 28 0 C29.47316261 2.94632522 29.1336477 5.92064913 29.12025452 9.14993286 C29.12110894 9.89484824 29.12196337 10.63976362 29.12284368 11.40725219 C29.12449757 13.91621954 29.1189786 16.42512079 29.11352539 18.93408203 C29.11324347 20.72745767 29.11340134 22.52083342 29.1139679 24.31420898 C29.11425569 29.19411025 29.10836182 34.07398712 29.10139394 38.95388269 C29.09515746 44.0494846 29.09455637 49.14508701 29.09336853 54.24069214 C29.09025609 63.89502364 29.08204386 73.54934386 29.07201904 83.20367038 C29.06085522 94.19262345 29.05534677 105.18157705 29.05032361 116.17053437 C29.03986118 138.78036251 29.02226341 161.39018062 29 184 C31.03071343 184.49646503 33.06332635 184.98516347 35.09667969 185.47070312 C36.22837585 185.74370239 37.36007202 186.01670166 38.52606201 186.29797363 C44.1036214 187.42510767 49.5754524 187.52914734 55.25 187.5 C56.47493164 187.49863037 57.69986328 187.49726074 58.96191406 187.49584961 C72.96681394 187.27124272 86.64603015 185.01507376 100.40917969 182.57250977 C104.58597157 181.90657443 108.79632291 181.46707523 113 181 C112.67 187.27 112.34 193.54 112 200 C75.04 200 38.08 200 0 200 C0 134 0 68 0 0 Z " fill="#977A78" transform="translate(1292,764)"/>
<path d="M0 0 C16 0 16 0 19.984375 2.9375 C21.41796875 4.875 21.41796875 4.875 22.75 7 C23.26691406 7.721875 23.78382812 8.44375 24.31640625 9.1875 C25.38907405 10.69080086 26.44061544 12.20939624 27.47070312 13.7421875 C29.85238459 17.25843753 32.43528746 20.61641319 35 24 C35.98699029 25.32941882 36.97396941 26.65884595 37.9609375 27.98828125 C41.59890226 32.83850593 45.43682048 37.51922447 49.28076172 42.20654297 C52.6302002 46.29650014 55.91606975 50.42391501 59.125 54.625 C66.95854401 64.8805093 74.93189898 75.01355039 83.14575195 84.96801758 C87.96836579 90.85146688 92.41818547 96.89091395 97 103 C97.33 69.01 97.66 35.02 98 0 C100.64 0 103.28 0 106 0 C106 47.19 106 94.38 106 143 C101.93961992 141.98490498 101.49434645 141.8685002 99.1171875 138.859375 C98.59503662 138.20767334 98.07288574 137.55597168 97.53491211 136.88452148 C96.98714111 136.18012939 96.43937012 135.4757373 95.875 134.75 C95.01177124 133.66344116 95.01177124 133.66344116 94.13110352 132.55493164 C89.86722084 127.1696283 85.68084747 121.72353467 81.515625 116.26171875 C78.79538975 112.7126955 75.99282958 109.23188232 73.1875 105.75 C68.89327995 100.41710081 64.70074039 95.01719909 60.5625 89.5625 C55.79012595 83.27530136 50.88171485 77.12157614 45.87524414 71.01977539 C41.41889837 65.5673289 37.14352921 59.99071127 32.89257812 54.37744141 C28.52082473 48.62659854 24.00215602 43.00764544 19.40039062 37.43945312 C18.89701172 36.82779297 18.39363281 36.21613281 17.875 35.5859375 C17.43929688 35.0604834 17.00359375 34.5350293 16.5546875 33.99365234 C14.27349959 31.06837275 12.15615704 28.01861985 10 25 C9.67 63.28 9.34 101.56 9 141 C6.03 141 3.06 141 0 141 C0 94.47 0 47.94 0 0 Z " fill="#967A78" transform="translate(1176,1027)"/>
<path d="M0 0 C27.39 0 54.78 0 83 0 C83 4.29 83 8.58 83 13 C80.72855745 12.73369294 78.4578682 12.46274436 76.1875 12.1875 C75.47190918 12.10129395 74.75631836 12.01508789 74.01904297 11.92626953 C70.10698806 11.43968715 66.22210242 10.8857604 62.33984375 10.19921875 C54.34952569 8.79053066 46.56537484 7.71668139 38.4375 7.6875 C37.73641113 7.68218262 37.03532227 7.67686523 36.31298828 7.67138672 C30.52246842 7.7493597 25.89761111 8.82047778 20 10 C20 27.16 20 44.32 20 62 C35.51 62 51.02 62 67 62 C67 64.64 67 67.28 67 70 C51.49 70 35.98 70 20 70 C20.33 90.79 20.66 111.58 21 133 C42.90418178 131.33211943 42.90418178 131.33211943 64.6875 128.875 C66.79428465 128.60000096 68.90126582 128.32708467 71.00898743 128.05935669 C72.86947244 127.82277567 74.72908913 127.57939326 76.58862305 127.33544922 C80.08177528 126.99195883 83.49236568 126.94241072 87 127 C87.02736707 128.39572052 87.04655989 129.79160221 87.0625 131.1875 C87.07410156 131.96480469 87.08570313 132.74210937 87.09765625 133.54296875 C87 136 87 136 86 141 C57.62 141 29.24 141 0 141 C0 94.47 0 47.94 0 0 Z " fill="#967B79" transform="translate(1321,1027)"/>
<path d="M0 0 C0.86671772 3.16337376 0.99470854 5.4844244 0.5625 8.75 C0.46066406 9.54921875 0.35882812 10.3484375 0.25390625 11.171875 C0.17011719 11.77515625 0.08632812 12.3784375 0 13 C-6.21742857 12.37396926 -11.78138106 10.54802136 -17.6875 8.5625 C-35.59273811 2.55943983 -35.59273811 2.55943983 -53.875 5.125 C-57.6475896 8.45375553 -59.63936202 11.62124646 -60.38671875 16.55078125 C-60.73907498 25.14098314 -58.41536552 32.32481355 -53.0625 39.0625 C-44.11424238 48.4581705 -31.63332895 54.81112016 -20.66625977 61.50805664 C4.6161732 77.07329523 4.6161732 77.07329523 8.53051758 90.86987305 C10.67235591 100.58778226 10.11354272 112.39193592 5 121 C4.59910156 121.70253906 4.19820312 122.40507813 3.78515625 123.12890625 C-2.27301208 132.38297788 -12.18800362 136.88551353 -22.6640625 139.33984375 C-41.21736493 142.56518388 -61.94323215 139.959825 -79 132 C-79 129.03 -79 126.06 -79 123 C-75.40365777 124.13568702 -71.95919986 125.4476466 -68.5 126.9375 C-54.97610758 132.33492792 -39.06939445 135.05263903 -25.3046875 129.19140625 C-17.82096421 125.32270184 -14.60403652 119.81210957 -12 112 C-11.21803371 104.29570913 -12.01961194 97.70713128 -16 91 C-21.56738978 85.03525257 -28.22082626 80.70423714 -35.1875 76.5625 C-37.043324 75.43287509 -38.89879217 74.3026654 -40.75390625 73.171875 C-42.50236364 72.11418562 -44.25104404 71.05686476 -46 70 C-72.29267231 54.08240306 -72.29267231 54.08240306 -77.09765625 39.71875 C-79.4592553 29.98609938 -79.13045439 19.74726541 -74 11 C-67.40082868 1.06219467 -57.09977676 -2.88872086 -45.828125 -5.50390625 C-30.42667158 -7.86188071 -14.80824587 -3.75009994 0 0 Z " fill="#967B79" transform="translate(1637,1030)"/>
<path d="M0 0 C0.0272415 1.41655793 0.04650467 2.83327045 0.0625 4.25 C0.07410156 5.03890625 0.08570313 5.8278125 0.09765625 6.640625 C0.00356049 8.91397859 -0.41648066 10.81129768 -1 13 C-8.9077347 11.38269352 -16.43467333 9.00685972 -24.09179688 6.47851562 C-32.92706488 3.60262673 -42.29087858 0.99123505 -51.375 4.1875 C-55.42482412 6.98380713 -57.4404067 9.64098771 -59.3125 14.1875 C-60.77396039 22.29196217 -59.39186977 29.08322904 -55 36 C-51.11465303 41.21083052 -46.7161623 45.03384997 -41.375 48.6875 C-40.64788818 49.19442383 -39.92077637 49.70134766 -39.17163086 50.22363281 C-33.4486202 54.15317117 -27.54274067 57.72862011 -21.5625 61.25 C-9.15882401 68.55987469 3.70655312 76.48369933 8.34375 90.875 C10.76871487 102.42245175 9.44899033 113.68414938 3.3125 123.75 C-3.11257571 132.700904 -12.39252335 136.89941697 -22.9375 139.25 C-41.10653528 142.09451751 -62.38056332 140.30971834 -79 132 C-79 129.03 -79 126.06 -79 123 C-74.71055615 124.40381799 -70.48108699 125.93009442 -66.25 127.5 C-53.06733657 132.17460555 -38.27495744 135.0718501 -25 129 C-19.18659612 125.89336618 -15.53409148 121.9426053 -12.84765625 115.9140625 C-10.88222691 109.15733306 -10.62672765 101.27546387 -13.375 94.6875 C-19.66731851 84.90131835 -30.24858276 79.06928615 -40.0625 73.375 C-71.38751095 55.06995192 -71.38751095 55.06995192 -76.52734375 39.52734375 C-78.25125568 30.30940146 -78.42280838 19.9747182 -73 12 C-65.18567474 1.40037069 -56.19622424 -3.09733292 -43.375 -5.75 C-28.36778145 -6.86164582 -14.33129921 -4.1875853 0 0 Z " fill="#967B79" transform="translate(1519,1030)"/>
<path d="M0 0 C27.39 0 54.78 0 83 0 C83 4.29 83 8.58 83 13 C76.37465083 12.48535718 69.94336646 11.70361616 63.41259766 10.48852539 C54.9958909 8.92964576 46.69933621 7.60784727 38.125 7.5625 C37.4436499 7.55275146 36.7622998 7.54300293 36.06030273 7.53295898 C30.03472471 7.63423542 26.19378043 9.14186587 20 11 C19.67 27.83 19.34 44.66 19 62 C33.85 62 48.7 62 64 62 C64 64.64 64 67.28 64 70 C49.48 70.33 34.96 70.66 20 71 C19.67 93.77 19.34 116.54 19 140 C12.73 140 6.46 140 0 140 C0 93.8 0 47.6 0 0 Z " fill="#967A78" transform="translate(900,1027)"/>
<path d="M0 0 C35.64 0 71.28 0 108 0 C108 4.29 108 8.58 108 13 C102.29639151 12.49074924 96.74248064 11.59931645 91.125 10.5 C81.74706887 8.70104406 74.38072468 7.31979295 65 10 C64.67 52.9 64.34 95.8 64 140 C57.73 140.33 51.46 140.66 45 141 C44.98969254 139.43256546 44.97938507 137.86513092 44.96876526 136.25019836 C44.87108437 121.49142098 44.7684129 106.7326879 44.66066074 91.9739809 C44.60539023 84.38607112 44.55191843 76.79815663 44.50268555 69.21020508 C44.45976804 62.59630633 44.41347108 55.98244133 44.36312145 49.36859483 C44.3365814 45.86685298 44.31173002 42.36511757 44.29092598 38.86333656 C44.2676345 34.95352339 44.23679794 31.04378948 44.20532227 27.1340332 C44.19668907 25.39370819 44.19668907 25.39370819 44.18788147 23.6182251 C44.17809265 22.55116837 44.16830383 21.48411163 44.15821838 20.38471985 C44.15176583 19.46016149 44.14531328 18.53560312 44.1386652 17.58302784 C43.99685835 14.94147802 43.70500524 12.55126154 43 10 C32.91513217 4.95756609 16.27225131 10.20878905 6.02026367 12.6328125 C4 13 4 13 0 13 C0 8.71 0 4.42 0 0 Z " fill="#967A78" transform="translate(1046,1027)"/>
<path d="M0 0 C6.6 0 13.2 0 20 0 C20 46.2 20 92.4 20 140 C13.4 140 6.8 140 0 140 C0 93.8 0 47.6 0 0 Z " fill="#987C7A" transform="translate(1003,1027)"/>
<path d="M0 0 C2.74798305 0.09212004 5.49457937 0.19839278 8.24145508 0.31933594 C9.18827148 0.34640625 10.13508789 0.37347656 11.1105957 0.40136719 C17.34874114 0.67126601 21.71057095 1.64826467 26.86645508 5.38183594 C28.6451384 7.90943855 28.8702886 10.00822804 29.05395508 13.06933594 C27.95640054 17.56930956 25.40849251 19.97963041 22.05395508 23.06933594 C23.72458008 23.93558594 23.72458008 23.93558594 25.42895508 24.81933594 C27.58296979 26.06822932 28.93477393 26.91906406 30.49145508 28.88183594 C31.52562824 32.90362044 32.10536078 36.27106964 29.92114258 40.00683594 C26.655073 44.11079772 24.21809158 45.7535586 19.05395508 47.06933594 C15.25826088 47.30637094 11.48009698 47.25809703 7.67895508 47.19433594 C6.65672852 47.1853125 5.63450195 47.17628906 4.58129883 47.16699219 C2.07193986 47.14354023 -0.43692828 47.11071949 -2.94604492 47.06933594 C-2.97131494 40.53654808 -2.98887784 34.00377273 -3.00097656 27.47094727 C-3.00601809 25.24665862 -3.01285115 23.02237331 -3.02148438 20.7980957 C-3.03355791 17.60855285 -3.03927488 14.41905365 -3.04370117 11.22949219 C-3.04886246 10.22845963 -3.05402374 9.22742706 -3.05934143 8.19606018 C-3.05941696 7.27518112 -3.05949249 6.35430206 -3.05957031 5.40551758 C-3.06179092 4.59055313 -3.06401154 3.77558868 -3.06629944 2.93592834 C-2.89926781 0.34326085 -2.59801432 0.09256506 0 0 Z M5.05395508 5.06933594 C5.05395508 10.67933594 5.05395508 16.28933594 5.05395508 22.06933594 C11.80733287 22.06933594 13.60376681 22.06159616 19.05395508 19.06933594 C21.28293669 16.46885739 21.05336111 15.03607378 20.99145508 11.56933594 C20.31134994 8.00393412 20.31134994 8.00393412 17.92895508 5.63183594 C13.48162888 3.21481083 9.77810986 3.49461768 5.05395508 5.06933594 Z M5.05395508 25.06933594 C5.05395508 31.33933594 5.05395508 37.60933594 5.05395508 44.06933594 C13.51198864 44.52368198 13.51198864 44.52368198 21.05395508 41.06933594 C23.22617886 38.42488959 23.05288829 37.03946576 22.92895508 33.56933594 C21.97652313 29.75960813 21.13189342 28.4230535 18.05395508 26.06933594 C15.03904951 25.06436741 13.01213816 24.96598291 9.86645508 25.00683594 C7.48426758 25.03777344 7.48426758 25.03777344 5.05395508 25.06933594 Z " fill="#282828" transform="translate(1085.946044921875,1238.9306640625)"/>
<path d="M0 0 C6 0 6 0 7.88427734 1.44677734 C8.4045752 2.1114502 8.92487305 2.77612305 9.4609375 3.4609375 C10.04713867 4.19280273 10.63333984 4.92466797 11.23730469 5.67871094 C12.10983887 6.82774902 12.10983887 6.82774902 13 8 C13.83772949 9.06782715 13.83772949 9.06782715 14.69238281 10.15722656 C16.35818886 12.29757653 17.99520274 14.4571357 19.625 16.625 C20.72007301 18.07648829 21.8164066 19.52702648 22.9140625 20.9765625 C23.6248999 21.92136475 23.6248999 21.92136475 24.35009766 22.88525391 C26.50127854 25.64250883 28.76118134 28.31341761 31 31 C31.33 20.77 31.66 10.54 32 0 C33.32 0 34.64 0 36 0 C36 15.51 36 31.02 36 47 C31.87360266 44.93680133 30.42339237 43.4448672 27.5625 39.9375 C27.14145996 39.4230835 26.72041992 38.90866699 26.28662109 38.37866211 C20.86108204 31.69121042 15.67529118 24.81102073 10.48876953 17.93774414 C8.69222052 15.59940214 6.84210184 13.3026273 5 11 C4.67 22.55 4.34 34.1 4 46 C2.68 46 1.36 46 0 46 C0 30.82 0 15.64 0 0 Z " fill="#212122" transform="translate(1174,1240)"/>
<path d="M0 0 C-0.33 1.65 -0.66 3.3 -1 5 C-2.06927734 4.67515625 -2.06927734 4.67515625 -3.16015625 4.34375 C-12.76815953 1.321451 -12.76815953 1.321451 -22.1875 3.6875 C-28.33223619 8.73983865 -30.48122022 13.41744527 -31.375 21.3125 C-30.75017966 27.45656669 -28.920416 32.97850947 -24.625 37.5 C-18.61733502 40.93295142 -13.77847264 41.20540826 -7 41 C-7 35.39 -7 29.78 -7 24 C-4.69 24 -2.38 24 0 24 C0 30.27 0 36.54 0 43 C-10.76820087 45.69205022 -19.98818937 46.58798733 -30 41 C-34.73069188 36.85533638 -38.6180819 32.228213 -39.37109375 25.86328125 C-39.5175967 18.0296823 -39.1831894 12.12902688 -34 6 C-25.35463003 -2.70287798 -11.09821872 -6.39068045 0 0 Z " fill="#141414" transform="translate(1258,1242)"/>
<path d="M0 0 C9.24 0 18.48 0 28 0 C28 1.65 28 3.3 28 5 C21.07 4.67 14.14 4.34 7 4 C7 9.28 7 14.56 7 20 C11.95 20 16.9 20 22 20 C22 21.32 22 22.64 22 24 C17.05 24 12.1 24 7 24 C7 30.27 7 36.54 7 43 C10.2175 42.505 10.2175 42.505 13.5 42 C18.75069174 41.24381519 23.70581681 40.78823267 29 41 C28.67 42.65 28.34 44.3 28 46 C18.76 46 9.52 46 0 46 C0 30.82 0 15.64 0 0 Z " fill="#161616" transform="translate(1309,1240)"/>
<path d="M0 0 C9.24 0 18.48 0 28 0 C27.67 1.65 27.34 3.3 27 5 C25.72382812 4.9278125 24.44765625 4.855625 23.1328125 4.78125 C21.46354331 4.68747083 19.79427238 4.59372243 18.125 4.5 C17.28324219 4.45230469 16.44148438 4.40460938 15.57421875 4.35546875 C14.76855469 4.31035156 13.96289062 4.26523438 13.1328125 4.21875 C12.38918457 4.17685547 11.64555664 4.13496094 10.87939453 4.09179688 C9.58744125 4.0286929 8.29349349 4 7 4 C7 9.28 7 14.56 7 20 C11.95 20 16.9 20 22 20 C22 21.32 22 22.64 22 24 C17.05 24 12.1 24 7 24 C7 30.27 7 36.54 7 43 C9.97 42.505 9.97 42.505 13 42 C18.09370768 41.2095011 22.85678442 40.79830527 28 41 C28 42.65 28 44.3 28 46 C18.76 46 9.52 46 0 46 C0 30.82 0 15.64 0 0 Z " fill="#0F0F0F" transform="translate(1270,1240)"/>
<path d="M0 0 C2.31 0 4.62 0 7 0 C7.01458252 0.96301025 7.02916504 1.92602051 7.04418945 2.91821289 C7.10249923 6.51737168 7.17972739 10.11592605 7.26245117 13.71459961 C7.29554777 15.26723362 7.32362651 16.81998353 7.34643555 18.37280273 C7.38026524 20.6149194 7.43258987 22.85598847 7.48828125 25.09765625 C7.49467117 25.78336197 7.5010611 26.46906769 7.50764465 27.17555237 C7.65787859 32.18601278 8.68980419 35.63069441 11 40 C14.22747055 42.15164703 15.20505639 42.27245079 18.9375 42.25 C19.79214844 42.25515625 20.64679688 42.2603125 21.52734375 42.265625 C24.1533122 41.98353044 25.76830438 41.38861061 28 40 C31.36018736 35.04814495 31.14363685 28.62699662 31.31640625 22.8515625 C31.33718735 22.19417084 31.35796844 21.53677917 31.37937927 20.85946655 C31.44420753 18.78140638 31.50344564 16.70323144 31.5625 14.625 C31.60574888 13.20701989 31.64936509 11.78905093 31.69335938 10.37109375 C31.79981918 6.9141812 31.90126984 3.45714294 32 0 C32.99 0 33.98 0 35 0 C35.12435639 4.98037787 35.21469131 9.95983617 35.2746582 14.94140625 C35.2996766 16.63297281 35.3337029 18.32443264 35.37719727 20.015625 C35.81650655 37.54664967 35.81650655 37.54664967 30 44 C24.37464211 47.60022905 18.5600778 47.82000972 12 47 C8.17292579 45.98582533 5.13256437 44.58996922 2.79083252 41.30249023 C0.19546909 36.23444454 -0.55186041 32.21911002 -0.390625 26.5625 C-0.38213531 25.41418701 -0.38213531 25.41418701 -0.37347412 24.24267578 C-0.35130835 21.82777979 -0.30115539 19.41443777 -0.25 17 C-0.22990915 15.35028204 -0.21166294 13.70054052 -0.1953125 12.05078125 C-0.15150943 8.03326695 -0.08262602 4.01689574 0 0 Z " fill="#0D0D0D" transform="translate(1128,1240)"/>
<path d="M0 0 C8.91 0 17.82 0 27 0 C27 1.65 27 3.3 27 5 C20.4 4.67 13.8 4.34 7 4 C7.33 9.28 7.66 14.56 8 20 C12.62 20 17.24 20 22 20 C22 21.32 22 22.64 22 24 C17.05 24 12.1 24 7 24 C7 31.26 7 38.52 7 46 C4.69 46 2.38 46 0 46 C0 30.82 0 15.64 0 0 Z " fill="#101010" transform="translate(1367,1240)"/>
<path d="M0 0 C2.64 0 5.28 0 8 0 C11.96 7.92 15.92 15.84 20 24 C21.2375 21.525 22.475 19.05 23.75 16.5 C26.5 11 29.25 5.5 32 0 C33.32 0.33 34.64 0.66 36 1 C34.20891568 4.75027841 32.41703149 8.5001741 30.625 12.25 C30.11710937 13.31347656 29.60921875 14.37695312 29.0859375 15.47265625 C28.59609375 16.49746094 28.10625 17.52226563 27.6015625 18.578125 C27.15119629 19.52075195 26.70083008 20.46337891 26.23681641 21.43457031 C25.4831607 22.99781828 24.6991246 24.54746916 23.86328125 26.06835938 C22.88380338 28.2599965 22.68844848 29.9362022 22.5859375 32.328125 C22.54726562 33.12734375 22.50859375 33.9265625 22.46875 34.75 C22.4378125 35.575 22.406875 36.4 22.375 37.25 C22.33632812 38.09046875 22.29765625 38.9309375 22.2578125 39.796875 C22.16384164 41.86423382 22.08084436 43.93208627 22 46 C19.69 46 17.38 46 15 46 C15.09023437 45.00226563 15.18046875 44.00453125 15.2734375 42.9765625 C15.86902886 27.9854391 8.74547772 16.75348943 1.26928711 4.328125 C0 2 0 2 0 0 Z " fill="#121212" transform="translate(1430,1240)"/>
<path d="M0 0 C2.31 0 4.62 0 7 0 C7.33 13.86 7.66 27.72 8 42 C14.27 41.67 20.54 41.34 27 41 C26.67 42.65 26.34 44.3 26 46 C17.42 46 8.84 46 0 46 C0 30.82 0 15.64 0 0 Z " fill="#0C0C0C" transform="translate(1401,1240)"/>
<path d="M0 0 C6.12321914 0 11.11376326 0.14382011 17 1 C17 1.66 17 2.32 17 3 C13.7 3.66 10.4 4.32 7 5 C7 10.61 7 16.22 7 22 C7.66 22.33 8.32 22.66 9 23 C8.01 23.33 7.02 23.66 6 24 C6.33 30.6 6.66 37.2 7 44 C9.64 44.33 12.28 44.66 15 45 C15 45.33 15 45.66 15 46 C10.05 46 5.1 46 0 46 C0 30.82 0 15.64 0 0 Z " fill="#0C0C0D" transform="translate(1084,1239)"/>
<path d="M0 0 C9.24 0 18.48 0 28 0 C27.67 1.65 27.34 3.3 27 5 C21.555 4.505 21.555 4.505 16 4 C15.67 3.01 15.34 2.02 15 1 C10.38 1 5.76 1 1 1 C1 15.52 1 30.04 1 45 C3.97 44.505 3.97 44.505 7 44 C7 43.67 7 43.34 7 43 C14.05453001 41.79556805 20.83437211 40.71899498 28 41 C28 42.65 28 44.3 28 46 C18.76 46 9.52 46 0 46 C0 30.82 0 15.64 0 0 Z " fill="#171717" transform="translate(1270,1240)"/>
<path d="M0 0 C1.91731918 0.11455681 3.8338675 0.24206258 5.75 0.375 C6.81734375 0.44460938 7.8846875 0.51421875 8.984375 0.5859375 C11.80206432 0.9728223 13.5830366 1.55686166 16 3 C15.67 4.65 15.34 6.3 15 8 C6.585 6.02 6.585 6.02 -2 4 C-1.34 2.68 -0.68 1.36 0 0 Z " fill="#232323" transform="translate(1242,1239)"/>
<path d="M0 0 C1.32 0.33 2.64 0.66 4 1 C2.35 4.63 0.7 8.26 -1 12 C-1.99 12 -2.98 12 -4 12 C-4.33 11.34 -4.66 10.68 -5 10 C-4.00390625 7.6171875 -4.00390625 7.6171875 -2.5625 4.875 C-1.85287109 3.50988281 -1.85287109 3.50988281 -1.12890625 2.1171875 C-0.75636719 1.41851563 -0.38382813 0.71984375 0 0 Z " fill="#272727" transform="translate(1462,1240)"/>
<path d="M0 0 C0.99 0 1.98 0 3 0 C2.875 2.75 2.875 2.75 2 6 C-0.875 8.4375 -0.875 8.4375 -4 10 C-4.99 9.67 -5.98 9.34 -7 9 C-6.67 8.01 -6.34 7.02 -6 6 C-5.360625 5.690625 -4.72125 5.38125 -4.0625 5.0625 C-1.54531085 3.7657662 -1.03113052 2.5778263 0 0 Z " fill="#232323" transform="translate(1158,1276)"/>
</svg>
