<svg data-v-423bf9ae="" xmlns="http://www.w3.org/2000/svg" viewBox="0 0 362 91" class="iconLeft"><g data-v-423bf9ae="" id="26b75907-f85a-4ab7-8a8a-84cec65c8244" fill="#B5988F" transform="matrix(6.091371059417725,0,0,6.091371059417725,117.1231460571289,-29.954322814941406)"><path d="M2.38 11.91L2.38 11.91Q2.38 12.12 2.51 12.12L2.51 12.12Q3.10 12.12 3.63 11.98Q4.16 11.85 4.59 11.57Q5.02 11.30 5.28 10.83Q5.53 10.37 5.53 9.77L5.53 9.77Q5.53 9.38 5.39 9.08Q5.25 8.78 5.02 8.61Q4.80 8.43 4.48 8.32Q4.17 8.21 3.86 8.17Q3.55 8.13 3.19 8.13L3.19 8.13L2.63 8.13Q2.48 8.13 2.46 8.50L2.46 8.50Q2.38 11.18 2.38 11.91ZM3.89 12.46L3.89 12.46L3.86 12.56L7.55 16.71L7.55 16.84L6.16 17.20Q3.10 13.28 2.67 12.84L2.67 12.84Q2.55 12.72 2.39 12.72L2.39 12.72Q2.39 15.42 2.46 16.77L2.46 16.77L1.30 17.17L1.15 17.05Q1.27 14.77 1.27 10.94L1.27 10.94Q1.27 10.91 1.25 9.96Q1.23 9.01 1.23 8.54L1.23 8.54Q1.23 8.33 0.98 8.18Q0.72 8.03 0.49 7.97Q0.26 7.91 0.16 7.91L0.16 7.91L0.17 7.67L0.25 7.58L4.06 7.58Q5.37 7.58 6.14 8.09Q6.90 8.59 6.90 9.54L6.90 9.54Q6.90 10.25 6.67 10.79Q6.44 11.33 6.02 11.67Q5.59 12.00 5.07 12.19Q4.55 12.38 3.89 12.46ZM9.66 9.50L9.66 9.50L9.54 13.32Q9.54 16.37 12.01 16.37L12.01 16.37Q13.08 16.37 14.47 15.54L14.47 15.54Q14.47 12.96 14.53 7.86L14.53 7.86L15.76 7.38L15.85 7.47Q15.62 9.17 15.62 14.26L15.62 14.26Q15.62 14.55 15.62 14.69Q15.62 14.83 15.63 15.08Q15.64 15.33 15.66 15.45Q15.67 15.58 15.71 15.76Q15.74 15.95 15.78 16.04Q15.83 16.14 15.90 16.24Q15.97 16.34 16.07 16.38Q16.17 16.42 16.29 16.42L16.29 16.42Q16.45 16.42 16.72 16.37Q17.00 16.31 17.10 16.30L17.10 16.30L17.16 16.54L17.09 16.64Q15.45 17.16 14.95 17.16L14.95 17.16Q14.83 17.16 14.75 17.13Q14.67 17.10 14.62 17.04Q14.57 16.97 14.54 16.92Q14.51 16.86 14.50 16.74Q14.49 16.63 14.48 16.57Q14.48 16.52 14.48 16.38Q14.49 16.24 14.49 16.19L14.49 16.19L14.38 16.11Q12.67 17.21 11.12 17.21L11.12 17.21Q10.55 17.21 10.12 17.09Q9.68 16.97 9.41 16.79Q9.15 16.60 8.96 16.33Q8.77 16.06 8.69 15.83Q8.60 15.60 8.54 15.31L8.54 15.31Q8.42 14.53 8.42 12.78L8.42 12.78Q8.42 12.24 8.44 11.14Q8.46 10.05 8.46 9.50L8.46 9.50L8.46 8.67Q8.46 8.48 8.30 8.33Q8.13 8.18 7.91 8.10Q7.68 8.03 7.50 7.99Q7.31 7.95 7.22 7.95L7.22 7.95L7.19 7.67L7.31 7.57L9.67 7.57L9.77 7.66Q9.74 7.79 9.70 8.54Q9.66 9.28 9.66 9.50ZM23.93 15.03L27.79 7.43L29.24 7.43L29.24 7.59Q29.07 7.68 28.99 7.89Q28.91 8.09 28.90 8.27Q28.89 8.44 28.89 8.81L28.89 8.81Q28.89 8.89 28.89 8.93L28.89 8.93Q28.89 11.07 28.93 12.59Q28.98 14.11 29.14 15.66L29.14 15.66Q29.18 15.98 29.40 16.21Q29.62 16.45 29.96 16.45L29.96 16.45Q29.98 16.45 30.74 16.37L30.74 16.37L30.74 16.70Q29.46 17.17 28.83 17.17L28.83 17.17Q28.47 17.17 28.21 17.06Q27.95 16.94 27.95 16.69L27.95 16.69L27.95 14.14Q27.95 14.03 27.82 9.42L27.82 9.42Q27.82 9.34 27.78 9.27Q27.75 9.21 27.70 9.21L27.70 9.21Q27.62 9.21 27.55 9.32L27.55 9.32L23.54 17.08L23.12 17.08Q23.00 16.78 22.59 15.80Q22.18 14.81 21.99 14.37Q21.81 13.92 21.44 13.07Q21.08 12.22 20.86 11.71Q20.63 11.20 20.36 10.59Q20.08 9.99 19.87 9.56L19.87 9.56Q19.79 9.42 19.72 9.42L19.72 9.42Q19.62 9.42 19.48 10.34Q19.35 11.25 19.21 12.68Q19.07 14.11 18.99 15.03Q18.92 15.96 18.85 16.77L18.85 16.77L17.80 17.13L17.71 17.09Q18.63 12.33 19.11 8.82L19.11 8.82Q19.12 8.76 19.12 8.65L19.12 8.65Q19.12 8.46 19.01 8.30Q18.91 8.15 18.72 8.10L18.72 8.10L17.77 7.83L17.80 7.53L17.90 7.43L20.36 7.43Q20.73 8.48 21.33 9.92Q21.94 11.35 22.38 12.33Q22.83 13.31 23.61 14.96L23.61 14.96Q23.71 15.16 23.77 15.16L23.77 15.16Q23.81 15.16 23.86 15.11Q23.91 15.07 23.93 15.03L23.93 15.03ZM37.16 16.02L37.16 16.02L36.41 13.39Q36.39 13.35 36.34 13.31Q36.29 13.27 36.25 13.27L36.25 13.27L33.10 13.27Q33.02 13.27 32.96 13.38L32.96 13.38L31.32 16.85L30.05 17.12L30.01 16.98Q32.76 12.36 34.75 8.41L34.75 8.41Q34.77 8.37 34.77 8.31L34.77 8.31Q34.77 8.27 34.73 8.22Q34.69 8.18 34.60 8.16L34.60 8.16L33.34 7.95L33.34 7.57L36.06 7.57Q36.26 8.70 37.36 12.65L37.36 12.65Q37.56 13.40 37.70 13.87Q37.84 14.33 38.08 14.96Q38.32 15.59 38.55 15.98L38.55 15.98Q38.80 16.41 39.44 16.41L39.44 16.41Q39.45 16.41 40.04 16.37L40.04 16.37L40.06 16.73L38.60 17.14Q38.28 17.23 37.97 17.23L37.97 17.23Q37.81 17.23 37.68 17.13Q37.55 17.04 37.45 16.84Q37.36 16.65 37.30 16.48Q37.24 16.32 37.16 16.02ZM35.01 9.08L35.01 9.08L33.38 12.50Q33.37 12.52 33.37 12.63L33.37 12.63Q33.37 12.65 33.40 12.69Q33.43 12.72 33.47 12.72L33.47 12.72L36.10 12.72Q36.20 12.72 36.20 12.63L36.20 12.63Q36.17 12.51 36.17 12.50L36.17 12.50L35.19 9.08Q35.16 9.02 35.09 9.02L35.09 9.02Q35.06 9.02 35.03 9.05Q35.01 9.07 35.01 9.08Z"></path></g><g data-v-423bf9ae="" id="a96fa922-cba2-4f89-a6d4-a04950e7d663" transform="matrix(1.0899657011032104,0,0,1.0899657011032104,-4.49861478805542,-8.783912658691406)" stroke="none" fill="#B5988F"><path d="M94.287 52.99 64.253 19.31l-.01-.009c-.036-.04-.081-.07-.119-.108a3 3 0 0 0-.34-.299c-.058-.041-.123-.07-.183-.106-.115-.069-.23-.139-.355-.191-.016-.007-.029-.019-.046-.025L39.103 8.916a2.81 2.81 0 0 0-3.331.971L5.527 52.036a2.812 2.812 0 0 0 1.239 4.251l8.247 3.304-.053 19.22a2.81 2.81 0 0 0 1.767 2.618l24.101 9.655q.016.004.031.009c.117.046.237.076.357.104.048.012.094.03.142.039a2.8 2.8 0 0 0 .908.022l.009-.001.022-.003 13.351-1.875a2.81 2.81 0 0 0 2.421-2.777l.009-3.104 9.545 3.823q.016.005.03.009c.116.045.236.075.355.104.049.012.095.03.145.04q.257.048.516.049.195 0 .391-.028l.008-.001.025-.004 13.349-1.874a2.81 2.81 0 0 0 2.421-2.777l.069-24.115 7.649-1.075a2.815 2.815 0 0 0 1.706-4.659M82.048 82.83 71.48 84.314l-1.406.198-1.407.197.064-22.766-13.412 1.887-.044 15.514-.004 1.514-.005 1.513-.012 4.223-10.568 1.484-1.407.198-1.407.197.073-26.549-10.037 1.407 3.026-4.217 27.218-37.933.959 1.076.959 1.076 28.116 31.529-10.063 1.414z"></path></g></svg>